<mxfile host="app.diagrams.net" modified="2021-12-07T00:39:05.005Z" agent="5.0 (Windows NT 10.0; Win64; x64) AppleWebKit/537.36 (KHTML, like Gecko) Chrome/96.0.4664.45 Safari/537.36" etag="PW5T5p0EzFkeysJOLB_6" version="15.9.1" type="github" pages="2">
  <diagram id="IBKNJCoHQByD5zcvlBd6" name="Page-3">
    <mxGraphModel dx="1093" dy="1101" grid="0" gridSize="10" guides="1" tooltips="1" connect="1" arrows="1" fold="1" page="1" pageScale="1" pageWidth="827" pageHeight="1169" math="0" shadow="0">
      <root>
        <mxCell id="a0AF7O8oE4SIbnAkeuq0-0" />
        <mxCell id="a0AF7O8oE4SIbnAkeuq0-1" parent="a0AF7O8oE4SIbnAkeuq0-0" />
        <mxCell id="a0AF7O8oE4SIbnAkeuq0-2" value="System Desing - Instagram" style="text;html=1;strokeColor=none;fillColor=none;align=center;verticalAlign=middle;whiteSpace=wrap;rounded=0;" parent="a0AF7O8oE4SIbnAkeuq0-1" vertex="1">
          <mxGeometry x="30" y="34" width="172" height="46" as="geometry" />
        </mxCell>
        <mxCell id="a0AF7O8oE4SIbnAkeuq0-3" value="&lt;h1&gt;Features&lt;/h1&gt;&lt;div&gt;1. Store images&lt;/div&gt;&lt;div&gt;4. Get Imaes&lt;/div&gt;&lt;div&gt;2. Like and Comment to the Post&lt;/div&gt;&lt;div&gt;3. Follow someone&lt;/div&gt;&lt;div&gt;&lt;br&gt;&lt;/div&gt;" style="text;html=1;strokeColor=none;fillColor=none;spacing=5;spacingTop=-20;whiteSpace=wrap;overflow=hidden;rounded=0;" parent="a0AF7O8oE4SIbnAkeuq0-1" vertex="1">
          <mxGeometry x="30" y="101" width="290" height="142" as="geometry" />
        </mxCell>
        <mxCell id="a0AF7O8oE4SIbnAkeuq0-4" value="&lt;h1&gt;High availability&lt;/h1&gt;&lt;div&gt;1. with 500ms.&amp;nbsp;&lt;/div&gt;&lt;div&gt;4, 2. We need that (latency 300ms o less)&amp;nbsp;&lt;/div&gt;&lt;div&gt;&lt;br&gt;&lt;/div&gt;&lt;p&gt;&lt;br&gt;&lt;/p&gt;" style="text;html=1;strokeColor=none;fillColor=none;spacing=5;spacingTop=-20;whiteSpace=wrap;overflow=hidden;rounded=0;" parent="a0AF7O8oE4SIbnAkeuq0-1" vertex="1">
          <mxGeometry x="32" y="261" width="341" height="131" as="geometry" />
        </mxCell>
        <mxCell id="a0AF7O8oE4SIbnAkeuq0-5" value="&lt;h1&gt;Paths&lt;/h1&gt;&lt;p&gt;1. POST /images -&amp;gt; store imges like Azure function Store&lt;/p&gt;&lt;p&gt;2. POST /comments, /likes -&amp;gt; store to db&lt;/p&gt;&lt;p&gt;3. POST /follow -&amp;gt; store to db&lt;/p&gt;&lt;p&gt;4. GET /posts -&amp;gt; We need images, comments and likes&lt;/p&gt;&lt;p&gt;&amp;nbsp;&lt;/p&gt;" style="text;html=1;strokeColor=none;fillColor=none;spacing=5;spacingTop=-20;whiteSpace=wrap;overflow=hidden;rounded=0;" parent="a0AF7O8oE4SIbnAkeuq0-1" vertex="1">
          <mxGeometry x="30" y="401" width="387" height="154" as="geometry" />
        </mxCell>
        <mxCell id="a0AF7O8oE4SIbnAkeuq0-37" style="edgeStyle=orthogonalEdgeStyle;rounded=0;orthogonalLoop=1;jettySize=auto;html=1;exitX=1;exitY=0.3333333333333333;exitDx=0;exitDy=0;exitPerimeter=0;entryX=-0.002;entryY=0.361;entryDx=0;entryDy=0;entryPerimeter=0;" parent="a0AF7O8oE4SIbnAkeuq0-1" source="a0AF7O8oE4SIbnAkeuq0-9" target="a0AF7O8oE4SIbnAkeuq0-22" edge="1">
          <mxGeometry relative="1" as="geometry" />
        </mxCell>
        <mxCell id="a0AF7O8oE4SIbnAkeuq0-9" value="Actor" style="shape=umlActor;verticalLabelPosition=bottom;verticalAlign=top;html=1;outlineConnect=0;" parent="a0AF7O8oE4SIbnAkeuq0-1" vertex="1">
          <mxGeometry x="67" y="778" width="30" height="60" as="geometry" />
        </mxCell>
        <mxCell id="a0AF7O8oE4SIbnAkeuq0-22" value="" style="rounded=1;whiteSpace=wrap;html=1;fillColor=none;dashed=1;" parent="a0AF7O8oE4SIbnAkeuq0-1" vertex="1">
          <mxGeometry x="169" y="598" width="640" height="552" as="geometry" />
        </mxCell>
        <mxCell id="a0AF7O8oE4SIbnAkeuq0-23" value="Cloud - America/Asia/Europe" style="text;html=1;strokeColor=none;fillColor=none;align=center;verticalAlign=middle;whiteSpace=wrap;rounded=0;dashed=1;" parent="a0AF7O8oE4SIbnAkeuq0-1" vertex="1">
          <mxGeometry x="399" y="552" width="149" height="28" as="geometry" />
        </mxCell>
        <mxCell id="a0AF7O8oE4SIbnAkeuq0-78" style="edgeStyle=orthogonalEdgeStyle;rounded=0;orthogonalLoop=1;jettySize=auto;html=1;exitX=0;exitY=0.25;exitDx=0;exitDy=0;entryX=0;entryY=0.5;entryDx=0;entryDy=0;" parent="a0AF7O8oE4SIbnAkeuq0-1" source="a0AF7O8oE4SIbnAkeuq0-24" target="a0AF7O8oE4SIbnAkeuq0-77" edge="1">
          <mxGeometry relative="1" as="geometry">
            <Array as="points">
              <mxPoint x="305" y="558" />
              <mxPoint x="417" y="558" />
              <mxPoint x="417" y="461" />
            </Array>
          </mxGeometry>
        </mxCell>
        <mxCell id="a0AF7O8oE4SIbnAkeuq0-24" value="" style="rounded=1;whiteSpace=wrap;html=1;fillColor=none;rotation=90;" parent="a0AF7O8oE4SIbnAkeuq0-1" vertex="1">
          <mxGeometry x="23.75" y="806.25" width="499" height="127.5" as="geometry" />
        </mxCell>
        <mxCell id="a0AF7O8oE4SIbnAkeuq0-25" value="API managent" style="text;html=1;strokeColor=none;fillColor=none;align=center;verticalAlign=middle;whiteSpace=wrap;rounded=0;" parent="a0AF7O8oE4SIbnAkeuq0-1" vertex="1">
          <mxGeometry x="243.25" y="763" width="60" height="30" as="geometry" />
        </mxCell>
        <mxCell id="a0AF7O8oE4SIbnAkeuq0-29" style="edgeStyle=orthogonalEdgeStyle;rounded=0;orthogonalLoop=1;jettySize=auto;html=1;exitX=1;exitY=0.25;exitDx=0;exitDy=0;entryX=0;entryY=0.5;entryDx=0;entryDy=0;entryPerimeter=0;" parent="a0AF7O8oE4SIbnAkeuq0-1" source="a0AF7O8oE4SIbnAkeuq0-26" target="a0AF7O8oE4SIbnAkeuq0-28" edge="1">
          <mxGeometry relative="1" as="geometry" />
        </mxCell>
        <mxCell id="a0AF7O8oE4SIbnAkeuq0-34" style="edgeStyle=orthogonalEdgeStyle;rounded=0;orthogonalLoop=1;jettySize=auto;html=1;exitX=1;exitY=1;exitDx=0;exitDy=0;entryX=0.5;entryY=0;entryDx=0;entryDy=0;" parent="a0AF7O8oE4SIbnAkeuq0-1" source="a0AF7O8oE4SIbnAkeuq0-26" target="a0AF7O8oE4SIbnAkeuq0-32" edge="1">
          <mxGeometry relative="1" as="geometry" />
        </mxCell>
        <mxCell id="a0AF7O8oE4SIbnAkeuq0-36" style="edgeStyle=orthogonalEdgeStyle;rounded=0;orthogonalLoop=1;jettySize=auto;html=1;exitX=0;exitY=0.5;exitDx=0;exitDy=0;entryX=0.109;entryY=-0.039;entryDx=0;entryDy=0;entryPerimeter=0;" parent="a0AF7O8oE4SIbnAkeuq0-1" source="a0AF7O8oE4SIbnAkeuq0-26" target="a0AF7O8oE4SIbnAkeuq0-24" edge="1">
          <mxGeometry relative="1" as="geometry" />
        </mxCell>
        <mxCell id="a0AF7O8oE4SIbnAkeuq0-26" value="Serverless / Azure function" style="rounded=1;whiteSpace=wrap;html=1;fillColor=none;" parent="a0AF7O8oE4SIbnAkeuq0-1" vertex="1">
          <mxGeometry x="399" y="623" width="120" height="60" as="geometry" />
        </mxCell>
        <mxCell id="a0AF7O8oE4SIbnAkeuq0-27" value="POST / images" style="text;html=1;strokeColor=none;fillColor=none;align=center;verticalAlign=middle;whiteSpace=wrap;rounded=0;" parent="a0AF7O8oE4SIbnAkeuq0-1" vertex="1">
          <mxGeometry x="414" y="689" width="95" height="32" as="geometry" />
        </mxCell>
        <mxCell id="a0AF7O8oE4SIbnAkeuq0-74" style="edgeStyle=orthogonalEdgeStyle;rounded=0;orthogonalLoop=1;jettySize=auto;html=1;exitX=1;exitY=0.5;exitDx=0;exitDy=0;exitPerimeter=0;entryX=-0.007;entryY=0.472;entryDx=0;entryDy=0;entryPerimeter=0;" parent="a0AF7O8oE4SIbnAkeuq0-1" source="a0AF7O8oE4SIbnAkeuq0-28" target="a0AF7O8oE4SIbnAkeuq0-71" edge="1">
          <mxGeometry relative="1" as="geometry" />
        </mxCell>
        <mxCell id="a0AF7O8oE4SIbnAkeuq0-28" value="DB" style="shape=cylinder3;whiteSpace=wrap;html=1;boundedLbl=1;backgroundOutline=1;size=15;fillColor=none;" parent="a0AF7O8oE4SIbnAkeuq0-1" vertex="1">
          <mxGeometry x="714" y="616" width="60" height="80" as="geometry" />
        </mxCell>
        <mxCell id="a0AF7O8oE4SIbnAkeuq0-30" value="Azure Store" style="ellipse;shape=cloud;whiteSpace=wrap;html=1;fillColor=none;" parent="a0AF7O8oE4SIbnAkeuq0-1" vertex="1">
          <mxGeometry x="676" y="717" width="120" height="80" as="geometry" />
        </mxCell>
        <mxCell id="a0AF7O8oE4SIbnAkeuq0-33" style="edgeStyle=orthogonalEdgeStyle;rounded=0;orthogonalLoop=1;jettySize=auto;html=1;exitX=1;exitY=0.5;exitDx=0;exitDy=0;entryX=0.07;entryY=0.4;entryDx=0;entryDy=0;entryPerimeter=0;" parent="a0AF7O8oE4SIbnAkeuq0-1" source="a0AF7O8oE4SIbnAkeuq0-32" target="a0AF7O8oE4SIbnAkeuq0-30" edge="1">
          <mxGeometry relative="1" as="geometry" />
        </mxCell>
        <mxCell id="a0AF7O8oE4SIbnAkeuq0-32" value="Serverless - Store imges" style="rounded=1;whiteSpace=wrap;html=1;fillColor=none;" parent="a0AF7O8oE4SIbnAkeuq0-1" vertex="1">
          <mxGeometry x="514" y="721" width="120" height="60" as="geometry" />
        </mxCell>
        <mxCell id="a0AF7O8oE4SIbnAkeuq0-40" style="edgeStyle=orthogonalEdgeStyle;rounded=0;orthogonalLoop=1;jettySize=auto;html=1;exitX=1;exitY=0.5;exitDx=0;exitDy=0;entryX=0;entryY=1;entryDx=0;entryDy=-15;entryPerimeter=0;" parent="a0AF7O8oE4SIbnAkeuq0-1" source="a0AF7O8oE4SIbnAkeuq0-38" target="a0AF7O8oE4SIbnAkeuq0-28" edge="1">
          <mxGeometry relative="1" as="geometry">
            <Array as="points">
              <mxPoint x="661" y="840" />
              <mxPoint x="661" y="681" />
            </Array>
          </mxGeometry>
        </mxCell>
        <mxCell id="a0AF7O8oE4SIbnAkeuq0-41" style="edgeStyle=orthogonalEdgeStyle;rounded=0;orthogonalLoop=1;jettySize=auto;html=1;exitX=0;exitY=0.5;exitDx=0;exitDy=0;entryX=0.442;entryY=-0.016;entryDx=0;entryDy=0;entryPerimeter=0;" parent="a0AF7O8oE4SIbnAkeuq0-1" source="a0AF7O8oE4SIbnAkeuq0-38" target="a0AF7O8oE4SIbnAkeuq0-24" edge="1">
          <mxGeometry relative="1" as="geometry" />
        </mxCell>
        <mxCell id="a0AF7O8oE4SIbnAkeuq0-38" value="Serverless" style="rounded=1;whiteSpace=wrap;html=1;fillColor=none;" parent="a0AF7O8oE4SIbnAkeuq0-1" vertex="1">
          <mxGeometry x="390" y="812" width="143" height="56" as="geometry" />
        </mxCell>
        <mxCell id="a0AF7O8oE4SIbnAkeuq0-39" value="POST /likes /comments /follow" style="text;html=1;strokeColor=none;fillColor=none;align=center;verticalAlign=middle;whiteSpace=wrap;rounded=0;" parent="a0AF7O8oE4SIbnAkeuq0-1" vertex="1">
          <mxGeometry x="380" y="873" width="184" height="23" as="geometry" />
        </mxCell>
        <mxCell id="a0AF7O8oE4SIbnAkeuq0-48" style="edgeStyle=orthogonalEdgeStyle;rounded=0;orthogonalLoop=1;jettySize=auto;html=1;exitX=0;exitY=0.5;exitDx=0;exitDy=0;entryX=0.648;entryY=-0.031;entryDx=0;entryDy=0;entryPerimeter=0;" parent="a0AF7O8oE4SIbnAkeuq0-1" source="a0AF7O8oE4SIbnAkeuq0-43" target="a0AF7O8oE4SIbnAkeuq0-24" edge="1">
          <mxGeometry relative="1" as="geometry" />
        </mxCell>
        <mxCell id="a0AF7O8oE4SIbnAkeuq0-51" style="edgeStyle=orthogonalEdgeStyle;rounded=0;orthogonalLoop=1;jettySize=auto;html=1;exitX=0.75;exitY=1;exitDx=0;exitDy=0;" parent="a0AF7O8oE4SIbnAkeuq0-1" source="a0AF7O8oE4SIbnAkeuq0-43" edge="1">
          <mxGeometry relative="1" as="geometry">
            <mxPoint x="480" y="1280" as="targetPoint" />
          </mxGeometry>
        </mxCell>
        <mxCell id="a0AF7O8oE4SIbnAkeuq0-75" style="edgeStyle=orthogonalEdgeStyle;rounded=0;orthogonalLoop=1;jettySize=auto;html=1;exitX=1;exitY=0.5;exitDx=0;exitDy=0;entryX=0;entryY=0.5;entryDx=0;entryDy=0;" parent="a0AF7O8oE4SIbnAkeuq0-1" source="a0AF7O8oE4SIbnAkeuq0-43" target="a0AF7O8oE4SIbnAkeuq0-61" edge="1">
          <mxGeometry relative="1" as="geometry" />
        </mxCell>
        <mxCell id="a0AF7O8oE4SIbnAkeuq0-43" value="Microservice" style="rounded=1;whiteSpace=wrap;html=1;fillColor=none;" parent="a0AF7O8oE4SIbnAkeuq0-1" vertex="1">
          <mxGeometry x="390" y="915" width="120" height="60" as="geometry" />
        </mxCell>
        <mxCell id="a0AF7O8oE4SIbnAkeuq0-44" value="GET /posts" style="text;html=1;strokeColor=none;fillColor=none;align=center;verticalAlign=middle;whiteSpace=wrap;rounded=0;" parent="a0AF7O8oE4SIbnAkeuq0-1" vertex="1">
          <mxGeometry x="397" y="982" width="96" height="30" as="geometry" />
        </mxCell>
        <mxCell id="a0AF7O8oE4SIbnAkeuq0-47" value="first 15 post recent" style="text;html=1;strokeColor=none;fillColor=none;align=center;verticalAlign=middle;whiteSpace=wrap;rounded=0;" parent="a0AF7O8oE4SIbnAkeuq0-1" vertex="1">
          <mxGeometry x="546" y="909" width="97" height="31" as="geometry" />
        </mxCell>
        <mxCell id="a0AF7O8oE4SIbnAkeuq0-49" value="MS - Authorization" style="rounded=1;whiteSpace=wrap;html=1;fillColor=none;" parent="a0AF7O8oE4SIbnAkeuq0-1" vertex="1">
          <mxGeometry x="349" y="1037" width="144" height="64" as="geometry" />
        </mxCell>
        <mxCell id="a0AF7O8oE4SIbnAkeuq0-50" value="" style="endArrow=none;html=1;rounded=0;" parent="a0AF7O8oE4SIbnAkeuq0-1" edge="1">
          <mxGeometry width="50" height="50" relative="1" as="geometry">
            <mxPoint x="369" y="1180" as="sourcePoint" />
            <mxPoint x="362" y="569" as="targetPoint" />
          </mxGeometry>
        </mxCell>
        <mxCell id="a0AF7O8oE4SIbnAkeuq0-52" value="" style="ellipse;shape=cloud;whiteSpace=wrap;html=1;fillColor=none;" parent="a0AF7O8oE4SIbnAkeuq0-1" vertex="1">
          <mxGeometry x="268" y="1264" width="470" height="304" as="geometry" />
        </mxCell>
        <mxCell id="a0AF7O8oE4SIbnAkeuq0-53" value="Horizontal sacling" style="text;html=1;strokeColor=none;fillColor=none;align=center;verticalAlign=middle;whiteSpace=wrap;rounded=0;" parent="a0AF7O8oE4SIbnAkeuq0-1" vertex="1">
          <mxGeometry x="309" y="1258" width="142" height="49" as="geometry" />
        </mxCell>
        <mxCell id="a0AF7O8oE4SIbnAkeuq0-54" value="VM" style="rounded=0;whiteSpace=wrap;html=1;fillColor=none;" parent="a0AF7O8oE4SIbnAkeuq0-1" vertex="1">
          <mxGeometry x="380" y="1354" width="60" height="54" as="geometry" />
        </mxCell>
        <mxCell id="a0AF7O8oE4SIbnAkeuq0-55" value="VM" style="rounded=0;whiteSpace=wrap;html=1;fillColor=none;" parent="a0AF7O8oE4SIbnAkeuq0-1" vertex="1">
          <mxGeometry x="457" y="1351" width="60" height="54" as="geometry" />
        </mxCell>
        <mxCell id="a0AF7O8oE4SIbnAkeuq0-56" value="VM" style="rounded=0;whiteSpace=wrap;html=1;fillColor=none;" parent="a0AF7O8oE4SIbnAkeuq0-1" vertex="1">
          <mxGeometry x="533" y="1354" width="60" height="54" as="geometry" />
        </mxCell>
        <mxCell id="a0AF7O8oE4SIbnAkeuq0-57" value="VM" style="rounded=0;whiteSpace=wrap;html=1;fillColor=none;" parent="a0AF7O8oE4SIbnAkeuq0-1" vertex="1">
          <mxGeometry x="384" y="1440" width="60" height="54" as="geometry" />
        </mxCell>
        <mxCell id="a0AF7O8oE4SIbnAkeuq0-58" value="VM" style="rounded=0;whiteSpace=wrap;html=1;fillColor=none;" parent="a0AF7O8oE4SIbnAkeuq0-1" vertex="1">
          <mxGeometry x="459" y="1440" width="60" height="54" as="geometry" />
        </mxCell>
        <mxCell id="a0AF7O8oE4SIbnAkeuq0-59" value="GET /posts/id" style="text;html=1;strokeColor=none;fillColor=none;align=center;verticalAlign=middle;whiteSpace=wrap;rounded=0;" parent="a0AF7O8oE4SIbnAkeuq0-1" vertex="1">
          <mxGeometry x="426.75" y="1004" width="96" height="30" as="geometry" />
        </mxCell>
        <mxCell id="a0AF7O8oE4SIbnAkeuq0-63" style="edgeStyle=orthogonalEdgeStyle;rounded=0;orthogonalLoop=1;jettySize=auto;html=1;exitX=0.5;exitY=1;exitDx=0;exitDy=0;entryX=0.5;entryY=0;entryDx=0;entryDy=0;entryPerimeter=0;" parent="a0AF7O8oE4SIbnAkeuq0-1" source="a0AF7O8oE4SIbnAkeuq0-61" target="a0AF7O8oE4SIbnAkeuq0-62" edge="1">
          <mxGeometry relative="1" as="geometry" />
        </mxCell>
        <mxCell id="a0AF7O8oE4SIbnAkeuq0-70" style="edgeStyle=orthogonalEdgeStyle;rounded=0;orthogonalLoop=1;jettySize=auto;html=1;exitX=1;exitY=0.5;exitDx=0;exitDy=0;" parent="a0AF7O8oE4SIbnAkeuq0-1" source="a0AF7O8oE4SIbnAkeuq0-61" edge="1">
          <mxGeometry relative="1" as="geometry">
            <mxPoint x="1030" y="758" as="targetPoint" />
          </mxGeometry>
        </mxCell>
        <mxCell id="a0AF7O8oE4SIbnAkeuq0-61" value="" style="rhombus;whiteSpace=wrap;html=1;fillColor=none;" parent="a0AF7O8oE4SIbnAkeuq0-1" vertex="1">
          <mxGeometry x="667" y="902" width="80" height="80" as="geometry" />
        </mxCell>
        <mxCell id="a0AF7O8oE4SIbnAkeuq0-62" value="Redis cache" style="shape=cylinder3;whiteSpace=wrap;html=1;boundedLbl=1;backgroundOutline=1;size=15;fillColor=none;" parent="a0AF7O8oE4SIbnAkeuq0-1" vertex="1">
          <mxGeometry x="674" y="1025" width="60" height="80" as="geometry" />
        </mxCell>
        <mxCell id="a0AF7O8oE4SIbnAkeuq0-64" value="CosmoDB / NoSQL" style="shape=cylinder3;whiteSpace=wrap;html=1;boundedLbl=1;backgroundOutline=1;size=15;fillColor=none;" parent="a0AF7O8oE4SIbnAkeuq0-1" vertex="1">
          <mxGeometry x="918" y="630" width="60" height="80" as="geometry" />
        </mxCell>
        <mxCell id="a0AF7O8oE4SIbnAkeuq0-65" value="Slave" style="text;html=1;strokeColor=none;fillColor=none;align=center;verticalAlign=middle;whiteSpace=wrap;rounded=0;" parent="a0AF7O8oE4SIbnAkeuq0-1" vertex="1">
          <mxGeometry x="915" y="582" width="60" height="30" as="geometry" />
        </mxCell>
        <mxCell id="a0AF7O8oE4SIbnAkeuq0-66" value="CosmoDB / NoSQL" style="shape=cylinder3;whiteSpace=wrap;html=1;boundedLbl=1;backgroundOutline=1;size=15;fillColor=none;" parent="a0AF7O8oE4SIbnAkeuq0-1" vertex="1">
          <mxGeometry x="1005" y="632" width="60" height="80" as="geometry" />
        </mxCell>
        <mxCell id="a0AF7O8oE4SIbnAkeuq0-67" value="CosmoDB / NoSQL" style="shape=cylinder3;whiteSpace=wrap;html=1;boundedLbl=1;backgroundOutline=1;size=15;fillColor=none;" parent="a0AF7O8oE4SIbnAkeuq0-1" vertex="1">
          <mxGeometry x="1091" y="630" width="60" height="80" as="geometry" />
        </mxCell>
        <mxCell id="a0AF7O8oE4SIbnAkeuq0-68" value="READ" style="text;html=1;strokeColor=none;fillColor=none;align=center;verticalAlign=middle;whiteSpace=wrap;rounded=0;" parent="a0AF7O8oE4SIbnAkeuq0-1" vertex="1">
          <mxGeometry x="989" y="585" width="97" height="30" as="geometry" />
        </mxCell>
        <mxCell id="a0AF7O8oE4SIbnAkeuq0-71" value="" style="rounded=0;whiteSpace=wrap;html=1;fillColor=none;dashed=1;" parent="a0AF7O8oE4SIbnAkeuq0-1" vertex="1">
          <mxGeometry x="882" y="566" width="295" height="195" as="geometry" />
        </mxCell>
        <mxCell id="a0AF7O8oE4SIbnAkeuq0-73" value="Pipeline" style="text;html=1;strokeColor=none;fillColor=none;align=center;verticalAlign=middle;whiteSpace=wrap;rounded=0;dashed=1;" parent="a0AF7O8oE4SIbnAkeuq0-1" vertex="1">
          <mxGeometry x="806" y="600" width="60" height="30" as="geometry" />
        </mxCell>
        <mxCell id="a0AF7O8oE4SIbnAkeuq0-77" value="&lt;h1&gt;Thorttling&lt;/h1&gt;" style="text;html=1;strokeColor=none;fillColor=none;spacing=5;spacingTop=-20;whiteSpace=wrap;overflow=hidden;rounded=0;dashed=1;" parent="a0AF7O8oE4SIbnAkeuq0-1" vertex="1">
          <mxGeometry x="522.75" y="423" width="190" height="76" as="geometry" />
        </mxCell>
        <mxCell id="a0AF7O8oE4SIbnAkeuq0-79" value="&lt;h1&gt;App User&lt;/h1&gt;&lt;div&gt;Retrypolicies applying backoff&lt;/div&gt;" style="text;html=1;strokeColor=none;fillColor=none;spacing=5;spacingTop=-20;whiteSpace=wrap;overflow=hidden;rounded=0;dashed=1;" parent="a0AF7O8oE4SIbnAkeuq0-1" vertex="1">
          <mxGeometry x="7" y="883" width="133" height="208" as="geometry" />
        </mxCell>
        <mxCell id="_9Vh-PhU1Wpczj0lzh8L-0" value="VM" style="rounded=0;whiteSpace=wrap;html=1;fillColor=none;" vertex="1" parent="a0AF7O8oE4SIbnAkeuq0-1">
          <mxGeometry x="533" y="1440" width="60" height="54" as="geometry" />
        </mxCell>
      </root>
    </mxGraphModel>
  </diagram>
  <diagram id="0s1VJDMANaTnfASygexj" name="Page-2">
    <mxGraphModel dx="765" dy="771" grid="0" gridSize="10" guides="1" tooltips="1" connect="1" arrows="1" fold="1" page="1" pageScale="1" pageWidth="827" pageHeight="1169" math="0" shadow="0">
      <root>
        <mxCell id="AbPmlLvdnzJitHkjhOGy-0" />
        <mxCell id="AbPmlLvdnzJitHkjhOGy-1" parent="AbPmlLvdnzJitHkjhOGy-0" />
        <mxCell id="AbPmlLvdnzJitHkjhOGy-2" value="&lt;h1&gt;Youtube&lt;br&gt;1. Up videos&lt;/h1&gt;&lt;div&gt;2. read the videos&lt;/div&gt;&lt;div&gt;3. subcristion to a canal&lt;/div&gt;&lt;div&gt;4.comment a video&lt;/div&gt;" style="text;html=1;strokeColor=none;fillColor=none;spacing=5;spacingTop=-20;whiteSpace=wrap;overflow=hidden;rounded=0;dashed=1;" vertex="1" parent="AbPmlLvdnzJitHkjhOGy-1">
          <mxGeometry x="18" y="25" width="212" height="143" as="geometry" />
        </mxCell>
        <mxCell id="zyNsmWa8Z7_k254PvjBj-2" value="2. it needs high avaibility&lt;br&gt;1. 600ms&lt;br&gt;&lt;br&gt;2. 100RPS" style="text;html=1;strokeColor=none;fillColor=none;align=center;verticalAlign=middle;whiteSpace=wrap;rounded=0;dashed=1;" vertex="1" parent="AbPmlLvdnzJitHkjhOGy-1">
          <mxGeometry x="15" y="160" width="133" height="78" as="geometry" />
        </mxCell>
        <mxCell id="zyNsmWa8Z7_k254PvjBj-7" style="edgeStyle=orthogonalEdgeStyle;rounded=0;orthogonalLoop=1;jettySize=auto;html=1;exitX=1;exitY=0.3333333333333333;exitDx=0;exitDy=0;exitPerimeter=0;entryX=0.25;entryY=1;entryDx=0;entryDy=0;" edge="1" parent="AbPmlLvdnzJitHkjhOGy-1" source="zyNsmWa8Z7_k254PvjBj-3" target="zyNsmWa8Z7_k254PvjBj-5">
          <mxGeometry relative="1" as="geometry" />
        </mxCell>
        <mxCell id="zyNsmWa8Z7_k254PvjBj-22" style="edgeStyle=orthogonalEdgeStyle;rounded=0;orthogonalLoop=1;jettySize=auto;html=1;exitX=0.75;exitY=0.1;exitDx=0;exitDy=0;exitPerimeter=0;entryX=0.348;entryY=1;entryDx=0;entryDy=0;entryPerimeter=0;" edge="1" parent="AbPmlLvdnzJitHkjhOGy-1" source="zyNsmWa8Z7_k254PvjBj-3" target="zyNsmWa8Z7_k254PvjBj-5">
          <mxGeometry relative="1" as="geometry" />
        </mxCell>
        <mxCell id="zyNsmWa8Z7_k254PvjBj-3" value="Actor" style="shape=umlActor;verticalLabelPosition=bottom;verticalAlign=top;html=1;outlineConnect=0;dashed=1;fillColor=none;" vertex="1" parent="AbPmlLvdnzJitHkjhOGy-1">
          <mxGeometry x="30" y="322" width="30" height="60" as="geometry" />
        </mxCell>
        <mxCell id="zyNsmWa8Z7_k254PvjBj-4" value="" style="rounded=1;whiteSpace=wrap;html=1;dashed=1;fillColor=none;" vertex="1" parent="AbPmlLvdnzJitHkjhOGy-1">
          <mxGeometry x="119" y="272" width="585" height="433" as="geometry" />
        </mxCell>
        <mxCell id="zyNsmWa8Z7_k254PvjBj-8" style="edgeStyle=orthogonalEdgeStyle;rounded=0;orthogonalLoop=1;jettySize=auto;html=1;exitX=0.5;exitY=0;exitDx=0;exitDy=0;entryX=0;entryY=0.5;entryDx=0;entryDy=0;" edge="1" parent="AbPmlLvdnzJitHkjhOGy-1" source="zyNsmWa8Z7_k254PvjBj-5" target="zyNsmWa8Z7_k254PvjBj-6">
          <mxGeometry relative="1" as="geometry" />
        </mxCell>
        <mxCell id="zyNsmWa8Z7_k254PvjBj-14" style="edgeStyle=orthogonalEdgeStyle;rounded=0;orthogonalLoop=1;jettySize=auto;html=1;exitX=0.25;exitY=0;exitDx=0;exitDy=0;entryX=0;entryY=0.5;entryDx=0;entryDy=0;" edge="1" parent="AbPmlLvdnzJitHkjhOGy-1" source="zyNsmWa8Z7_k254PvjBj-5" target="zyNsmWa8Z7_k254PvjBj-11">
          <mxGeometry relative="1" as="geometry" />
        </mxCell>
        <mxCell id="zyNsmWa8Z7_k254PvjBj-24" style="edgeStyle=orthogonalEdgeStyle;rounded=0;orthogonalLoop=1;jettySize=auto;html=1;exitX=0.75;exitY=0;exitDx=0;exitDy=0;" edge="1" parent="AbPmlLvdnzJitHkjhOGy-1" source="zyNsmWa8Z7_k254PvjBj-5" target="zyNsmWa8Z7_k254PvjBj-23">
          <mxGeometry relative="1" as="geometry" />
        </mxCell>
        <mxCell id="zyNsmWa8Z7_k254PvjBj-5" value="Api managenmt" style="rounded=1;whiteSpace=wrap;html=1;fillColor=none;rotation=90;" vertex="1" parent="AbPmlLvdnzJitHkjhOGy-1">
          <mxGeometry x="28" y="411" width="398.5" height="134.5" as="geometry" />
        </mxCell>
        <mxCell id="zyNsmWa8Z7_k254PvjBj-10" style="edgeStyle=orthogonalEdgeStyle;rounded=0;orthogonalLoop=1;jettySize=auto;html=1;exitX=1;exitY=0.5;exitDx=0;exitDy=0;entryX=0;entryY=1;entryDx=0;entryDy=-15;entryPerimeter=0;" edge="1" parent="AbPmlLvdnzJitHkjhOGy-1" source="zyNsmWa8Z7_k254PvjBj-6" target="zyNsmWa8Z7_k254PvjBj-9">
          <mxGeometry relative="1" as="geometry" />
        </mxCell>
        <mxCell id="zyNsmWa8Z7_k254PvjBj-6" value="Service - Subscription" style="rounded=1;whiteSpace=wrap;html=1;fillColor=none;" vertex="1" parent="AbPmlLvdnzJitHkjhOGy-1">
          <mxGeometry x="373" y="292" width="151" height="76" as="geometry" />
        </mxCell>
        <mxCell id="zyNsmWa8Z7_k254PvjBj-9" value="DB" style="shape=cylinder3;whiteSpace=wrap;html=1;boundedLbl=1;backgroundOutline=1;size=15;fillColor=none;" vertex="1" parent="AbPmlLvdnzJitHkjhOGy-1">
          <mxGeometry x="739" y="302" width="60" height="80" as="geometry" />
        </mxCell>
        <mxCell id="zyNsmWa8Z7_k254PvjBj-13" style="edgeStyle=orthogonalEdgeStyle;rounded=0;orthogonalLoop=1;jettySize=auto;html=1;exitX=1;exitY=0.5;exitDx=0;exitDy=0;entryX=0.5;entryY=1;entryDx=0;entryDy=0;entryPerimeter=0;" edge="1" parent="AbPmlLvdnzJitHkjhOGy-1" source="zyNsmWa8Z7_k254PvjBj-11" target="zyNsmWa8Z7_k254PvjBj-9">
          <mxGeometry relative="1" as="geometry" />
        </mxCell>
        <mxCell id="zyNsmWa8Z7_k254PvjBj-15" style="edgeStyle=orthogonalEdgeStyle;rounded=0;orthogonalLoop=1;jettySize=auto;html=1;exitX=0.25;exitY=1;exitDx=0;exitDy=0;entryX=0.25;entryY=0;entryDx=0;entryDy=0;" edge="1" parent="AbPmlLvdnzJitHkjhOGy-1" source="zyNsmWa8Z7_k254PvjBj-11" target="zyNsmWa8Z7_k254PvjBj-12">
          <mxGeometry relative="1" as="geometry" />
        </mxCell>
        <mxCell id="zyNsmWa8Z7_k254PvjBj-11" value="Canal / upload video" style="rounded=1;whiteSpace=wrap;html=1;fillColor=none;" vertex="1" parent="AbPmlLvdnzJitHkjhOGy-1">
          <mxGeometry x="381" y="405" width="138" height="61" as="geometry" />
        </mxCell>
        <mxCell id="zyNsmWa8Z7_k254PvjBj-17" style="edgeStyle=orthogonalEdgeStyle;rounded=0;orthogonalLoop=1;jettySize=auto;html=1;exitX=1;exitY=1;exitDx=0;exitDy=0;entryX=0.855;entryY=1;entryDx=0;entryDy=-4.35;entryPerimeter=0;" edge="1" parent="AbPmlLvdnzJitHkjhOGy-1" source="zyNsmWa8Z7_k254PvjBj-12" target="zyNsmWa8Z7_k254PvjBj-9">
          <mxGeometry relative="1" as="geometry" />
        </mxCell>
        <mxCell id="zyNsmWa8Z7_k254PvjBj-20" style="edgeStyle=orthogonalEdgeStyle;rounded=0;orthogonalLoop=1;jettySize=auto;html=1;exitX=0.75;exitY=1;exitDx=0;exitDy=0;entryX=0.4;entryY=0.1;entryDx=0;entryDy=0;entryPerimeter=0;" edge="1" parent="AbPmlLvdnzJitHkjhOGy-1" source="zyNsmWa8Z7_k254PvjBj-12" target="zyNsmWa8Z7_k254PvjBj-19">
          <mxGeometry relative="1" as="geometry" />
        </mxCell>
        <mxCell id="zyNsmWa8Z7_k254PvjBj-12" value="Service notification" style="rounded=1;whiteSpace=wrap;html=1;fillColor=none;" vertex="1" parent="AbPmlLvdnzJitHkjhOGy-1">
          <mxGeometry x="375" y="512" width="138" height="61" as="geometry" />
        </mxCell>
        <mxCell id="zyNsmWa8Z7_k254PvjBj-16" value="ID - viceopand the id canl" style="text;html=1;strokeColor=none;fillColor=none;align=center;verticalAlign=middle;whiteSpace=wrap;rounded=0;" vertex="1" parent="AbPmlLvdnzJitHkjhOGy-1">
          <mxGeometry x="424" y="473.5" width="112" height="30.5" as="geometry" />
        </mxCell>
        <mxCell id="zyNsmWa8Z7_k254PvjBj-21" style="edgeStyle=orthogonalEdgeStyle;rounded=0;orthogonalLoop=1;jettySize=auto;html=1;exitX=0.13;exitY=0.77;exitDx=0;exitDy=0;exitPerimeter=0;" edge="1" parent="AbPmlLvdnzJitHkjhOGy-1" source="zyNsmWa8Z7_k254PvjBj-19" target="zyNsmWa8Z7_k254PvjBj-3">
          <mxGeometry relative="1" as="geometry" />
        </mxCell>
        <mxCell id="zyNsmWa8Z7_k254PvjBj-19" value="Service cloud notification" style="ellipse;shape=cloud;whiteSpace=wrap;html=1;fillColor=none;" vertex="1" parent="AbPmlLvdnzJitHkjhOGy-1">
          <mxGeometry x="407" y="778" width="208" height="110" as="geometry" />
        </mxCell>
        <mxCell id="zyNsmWa8Z7_k254PvjBj-25" style="edgeStyle=orthogonalEdgeStyle;rounded=0;orthogonalLoop=1;jettySize=auto;html=1;exitX=1;exitY=0.5;exitDx=0;exitDy=0;entryX=0.145;entryY=1;entryDx=0;entryDy=-4.35;entryPerimeter=0;startArrow=none;" edge="1" parent="AbPmlLvdnzJitHkjhOGy-1" source="zyNsmWa8Z7_k254PvjBj-26" target="zyNsmWa8Z7_k254PvjBj-9">
          <mxGeometry relative="1" as="geometry" />
        </mxCell>
        <mxCell id="zyNsmWa8Z7_k254PvjBj-23" value="READ VIDEOS" style="rounded=1;whiteSpace=wrap;html=1;fillColor=none;" vertex="1" parent="AbPmlLvdnzJitHkjhOGy-1">
          <mxGeometry x="386" y="600" width="120" height="60" as="geometry" />
        </mxCell>
        <mxCell id="zyNsmWa8Z7_k254PvjBj-26" value="CACHE" style="rhombus;whiteSpace=wrap;html=1;fillColor=none;" vertex="1" parent="AbPmlLvdnzJitHkjhOGy-1">
          <mxGeometry x="588" y="605" width="80" height="80" as="geometry" />
        </mxCell>
        <mxCell id="zyNsmWa8Z7_k254PvjBj-27" value="" style="edgeStyle=orthogonalEdgeStyle;rounded=0;orthogonalLoop=1;jettySize=auto;html=1;exitX=1;exitY=0.5;exitDx=0;exitDy=0;entryX=0.145;entryY=1;entryDx=0;entryDy=-4.35;entryPerimeter=0;endArrow=none;" edge="1" parent="AbPmlLvdnzJitHkjhOGy-1" source="zyNsmWa8Z7_k254PvjBj-23" target="zyNsmWa8Z7_k254PvjBj-26">
          <mxGeometry relative="1" as="geometry">
            <mxPoint x="506" y="630" as="sourcePoint" />
            <mxPoint x="747.7" y="377.6500000000001" as="targetPoint" />
          </mxGeometry>
        </mxCell>
      </root>
    </mxGraphModel>
  </diagram>
</mxfile>
